<?xml version="1.0" encoding="UTF-8"?>
<svg id="Ebene_1" data-name="Ebene 1" xmlns="http://www.w3.org/2000/svg" viewBox="0 0 269.29 170.08">
  <defs>
    <style>
      .cls-1 {
        fill: #fff;
        stroke-width: 0px;
      }
    </style>
  </defs>
  <g>
    <path class="cls-1" d="M74.07,93.5v-27.11c0-14.42-9.23-21.92-36.57-21.92-21.24,0-33.93,9.94-33.93,21.3h15.35c1.21-4.99,5.5-8.49,18.47-8.49s20.31,3.12,20.31,9.46v1.15c-37.15,0-57.69,2.57-57.69,19.19,0,10.15,10.18,18.66,25.71,18.66s25.4-1.68,32.32-7.45h.35c-.1,2.87.54,4.48,1.85,5.84h15.69c-1.27-2.88-1.85-6.81-1.85-10.61ZM57.69,79.26c0,11.74-14,13.74-26.6,13.74-9.25,0-15.65-2.46-15.65-6.94,0-6.65,17.21-7.88,42.24-7.88v1.07Z"/>
    <path class="cls-1" d="M88.38,45.84h16.04v6.85h.46c5.05-6.53,14.37-8.23,25.13-8.23,13.15,0,25.86,8.01,25.86,21.7v6.17h-16.38v-2.04c0-7.06-5.18-12.45-13.41-12.45-12.13,0-21.31,4.85-21.31,16.85v29.42h-16.38v-58.27Z"/>
    <path class="cls-1" d="M168.22,26.24h16.38v15.18h-16.38v-15.18ZM168.22,45.84h16.38v58.27h-16.38v-58.27Z"/>
    <path class="cls-1" d="M213.33,83.8c.23,5.08,3.92,8.88,20.08,8.88s19.61-3.35,19.61-6.11c0-11.08-54.46,1.85-54.46-24.34,0-9.92,8.65-17.77,33.92-17.77s34.84,8.65,34.96,19.61h-16.15c-.12-3.92-4.04-6.81-18.35-6.81-15.23,0-18.11,3.12-18.11,5.19,0,10.61,54.46-1.5,54.46,24.11,0,11.42-10.73,18.92-35.42,18.92s-36.46-7.61-36.69-21.69h16.15Z"/>
    <rect class="cls-1" x="168.22" y="15.47" width="16.38" height="7.27"/>
    <rect class="cls-1" x="168.22" y="7.16" width="16.38" height="4.82"/>
  </g>
  <g>
    <path class="cls-1" d="M5.13,145.52c.61,2.39,2.39,3.83,5.39,3.83,3.22,0,4.48-1.39,4.48-3.39s-1-3.04-5.22-4.04c-6.31-1.52-7.61-3.48-7.61-6.48s2.3-6.18,7.96-6.18,8.05,3.31,8.31,6.35h-3.65c-.35-1.39-1.44-3.39-4.78-3.39-3.09,0-4.04,1.48-4.04,2.91,0,1.65.91,2.48,4.96,3.44,6.7,1.61,8.05,3.83,8.05,7.09,0,3.87-3.09,6.7-8.57,6.7s-8.52-2.87-9.09-6.83h3.83Z"/>
    <path class="cls-1" d="M23.62,160.48v-25.31c0-1.83,0-3.7-.04-5.39h3.7c.09.74.13,2.04.13,3.48,1.22-2.26,3.44-4,7.22-4,5.09,0,8.78,4.26,8.78,10.96,0,7.91-4.22,12.13-9.57,12.13-3.57,0-5.44-1.48-6.44-3.26v11.39h-3.78ZM33.62,132.52c-4.57,0-6.39,2.87-6.39,8.26s1.48,8.35,6.09,8.35c4.04,0,6.18-3.31,6.18-8.74,0-4.7-2.13-7.87-5.87-7.87Z"/>
    <path class="cls-1" d="M64.84,147c0,2.04.17,4.17.3,4.83h-3.65c-.17-.48-.3-1.52-.35-2.87-.78,1.44-2.57,3.39-6.83,3.39-5.22,0-7.44-3.39-7.44-6.74,0-4.91,3.87-7.18,10.44-7.18h3.74v-1.87c0-1.96-.61-4.31-4.74-4.31-3.65,0-4.31,1.83-4.7,3.52h-3.7c.3-3.04,2.17-6.52,8.52-6.52,5.39,0,8.39,2.22,8.39,7.22v10.52ZM61.1,141.09h-3.57c-4.39,0-6.74,1.22-6.74,4.31,0,2.3,1.57,3.96,4.31,3.96,5.31,0,6-3.57,6-7.57v-.7Z"/>
    <path class="cls-1" d="M88.81,145.09c-.91,3.78-3.48,7.26-9.09,7.26-6.09,0-9.83-4.35-9.83-11.44,0-6.22,3.52-11.65,10.09-11.65s8.57,4.52,8.83,7.35h-3.78c-.52-2.22-1.91-4.17-5.13-4.17-3.87,0-6.09,3.35-6.09,8.35s2.13,8.39,5.96,8.39c2.74,0,4.35-1.48,5.26-4.09h3.78Z"/>
    <path class="cls-1" d="M95.9,141.48c.04,4.48,2.3,7.7,6.04,7.7,3.48,0,4.61-1.83,5.31-3.44h3.87c-.87,2.83-3.26,6.61-9.31,6.61-6.91,0-9.74-5.65-9.74-11.31,0-6.57,3.31-11.79,10-11.79,7.13,0,9.44,5.7,9.44,10.39,0,.7,0,1.26-.04,1.83h-15.57ZM107.64,138.83c-.04-3.65-1.87-6.57-5.61-6.57s-5.61,2.7-6,6.57h11.61Z"/>
    <path class="cls-1" d="M124.56,129.78h3.83v-6.52h3.78v6.52h4.87v3.09h-4.87v12.92c0,2.17.52,3.26,2.52,3.26.52,0,1.3-.04,1.91-.17v2.87c-.91.35-2.22.39-3.31.39-3.44,0-4.91-1.78-4.91-5.44v-13.83h-3.83v-3.09Z"/>
    <path class="cls-1" d="M159.91,140.74c0,6.39-3.65,11.61-10.39,11.61-6.31,0-10.13-4.87-10.13-11.52s3.74-11.57,10.39-11.57c6.13,0,10.13,4.57,10.13,11.48ZM143.3,140.78c0,4.87,2.44,8.39,6.39,8.39s6.31-3.35,6.31-8.35-2.26-8.39-6.39-8.39-6.31,3.35-6.31,8.35Z"/>
    <path class="cls-1" d="M194.05,149.83c0,7.09-2.91,11.09-10.13,11.09-6.7,0-8.74-3.74-9.13-6.74h3.87c.65,2.44,2.61,3.7,5.44,3.7,5,0,6.22-3.17,6.22-8.22v-1.78c-1.17,2.44-3.17,3.87-6.87,3.87-5.44,0-9.13-4.44-9.13-10.92,0-7.18,4.22-11.57,9.52-11.57,4.22,0,6,1.96,6.48,3.44.04-1,.17-2.48.22-2.91h3.57c0,1.26-.04,4.26-.04,6.35v13.7ZM184.31,148.48c4.74,0,6.13-3.22,6.13-8.09s-1.3-7.91-6-7.91c-4.09,0-6.18,3.44-6.18,8.18s2.44,7.83,6.05,7.83Z"/>
    <path class="cls-1" d="M200.53,135.78c0-3.09-.04-4.83-.04-6h3.74c.04.61.13,2.35.13,4.48,1.13-2.96,3.74-4.91,7.39-5v3.78c-4.52.13-7.39,2.52-7.39,8.09v10.7h-3.83v-16.05Z"/>
    <path class="cls-1" d="M234.45,140.74c0,6.39-3.65,11.61-10.39,11.61-6.31,0-10.13-4.87-10.13-11.52s3.74-11.57,10.39-11.57c6.13,0,10.13,4.57,10.13,11.48ZM217.84,140.78c0,4.87,2.44,8.39,6.39,8.39s6.31-3.35,6.31-8.35-2.26-8.39-6.39-8.39-6.31,3.35-6.31,8.35Z"/>
    <path class="cls-1" d="M241.02,129.78c2.74,10.35,4.3,16.26,4.7,18.53h.04c.39-2.04,1.96-7.57,5.09-18.53h3.74c3.43,12.48,4.48,16.09,4.83,18.09h.04c.56-2.35,1.43-5.65,4.87-18.09h3.87l-6.78,22.05h-4.13c-2.13-8.05-4.26-15.48-4.74-17.87h-.04c-.39,2.39-2.35,9.13-4.83,17.87h-4.26l-6.39-22.05h4Z"/>
  </g>
</svg>